<svg width="77" height="77" viewBox="0 0 77 77" fill="none" xmlns="http://www.w3.org/2000/svg">
<path d="M34.65 57.75H42.35V42.35H57.75V34.65H42.35V19.25H34.65V34.65H19.25V42.35H34.65V57.75ZM38.5 77C33.1742 77 28.1692 76.0054 23.485 74.0163C18.8008 71.9629 14.7262 69.2037 11.2613 65.7387C7.79625 62.2737 5.03708 58.1992 2.98375 53.515C0.994583 48.8308 0 43.8258 0 38.5C0 33.1742 0.994583 28.1692 2.98375 23.485C5.03708 18.8008 7.79625 14.7262 11.2613 11.2612C14.7262 7.79625 18.8008 5.06916 23.485 3.08C28.1692 1.02667 33.1742 0 38.5 0C43.8258 0 48.8308 1.02667 53.515 3.08C58.1992 5.06916 62.2738 7.79625 65.7388 11.2612C69.2038 14.7262 71.9308 18.8008 73.92 23.485C75.9733 28.1692 77 33.1742 77 38.5C77 43.8258 75.9733 48.8308 73.92 53.515C71.9308 58.1992 69.2038 62.2737 65.7388 65.7387C62.2738 69.2037 58.1992 71.9629 53.515 74.0163C48.8308 76.0054 43.8258 77 38.5 77ZM38.5 69.3C47.0983 69.3 54.3813 66.3162 60.3488 60.3487C66.3163 54.3812 69.3 47.0983 69.3 38.5C69.3 29.9017 66.3163 22.6187 60.3488 16.6512C54.3813 10.6837 47.0983 7.7 38.5 7.7C29.9017 7.7 22.6187 10.6837 16.6512 16.6512C10.6837 22.6187 7.7 29.9017 7.7 38.5C7.7 47.0983 10.6837 54.3812 16.6512 60.3487C22.6187 66.3162 29.9017 69.3 38.5 69.3Z" fill="white"/>
</svg>
